#!OML:ASF F:\VICON\USERDATA\INSTALL\rory3\rory3.ASF
:FULLY-SPECIFIED
:DEGREES
787
root -0.812561 16.3613 5.81925 -156.453 -10.5203 187.899
lowerback 4.31713 3.11408 8.17477
upperback -6.11559 4.65645 2.11511
thorax -8.43953 1.65473 -2.80323
lowerneck -12.4778 1.00163 -2.73349
upperneck 39.8601 -3.59982 2.72402
head 16.5225 -2.94769 0.661152
rclavicle 1.80894e-014 -3.97569e-015
rhumerus -232.893 -171.952 109.236
rradius 39.7944
rwrist -79.7419
rhand 18.322 4.16857
rfingers 7.12502
rthumb 42.9689 -20.0884
lclavicle 1.80894e-014 -3.97569e-015
lhumerus -61.0512 5.58153 62.9928
lradius 35.901
lwrist 36.6314
lhand 41.0162 23.2113
lfingers 7.12502
lthumb 63.232 33.0817
rfemur -27.0425 5.95333 38.979
rtibia 27.1496
rfoot -30.1457 -10.9743
rtoes -28.0328
lfemur -71.9794 0.450302 -4.35786
ltibia 41.8077
lfoot -46.0405 1.21474
ltoes 50.7365
788
root -0.798789 16.3701 5.71689 -157.118 -10.3055 187.566
lowerback 4.86445 2.86046 7.59017
upperback -6.17859 4.34524 2.10444
thorax -8.90016 1.52693 -2.49646
lowerneck -11.896 1.2324 -2.46576
upperneck 39.9575 -3.52773 2.81564
head 16.4242 -2.91965 0.660441
rclavicle 1.80894e-014 3.49861e-014
rhumerus -234.375 -171.466 110.605
rradius 39.0514
rwrist -79.2822
rhand 18.9188 4.31941
rfingers 7.12502
rthumb 43.5266 -19.7378
lclavicle 1.80894e-014 3.49861e-014
lhumerus -62.0725 6.1 61.4257
lradius 34.1151
lwrist 33.9149
lhand 40.8878 23.0112
lfingers 7.12502
lthumb 63.1269 33.0274
rfemur -25.3533 6.56813 38.6282
rtibia 26.4398
rfoot -30.3688 -11.9185
rtoes -28.2847
lfemur -72.3063 0.364785 -5.55246
ltibia 41.6566
lfoot -45.1704 2.47987
ltoes 51.4729
789
root -0.76661 16.3596 5.64116 -156.255 -9.82202 186.939
lowerback 3.55705 2.76248 6.33411
upperback -6.15347 3.97599 2.08151
thorax -8.20135 1.45667 -1.72263
lowerneck -12.1149 1.43308 -2.09958
upperneck 39.9563 -3.15722 2.4741
head 16.449 -2.74925 0.505156
rclavicle -1.80894e-014 -1.55052e-014
rhumerus -234.654 -170.819 112.084
rradius 37.5675
rwrist -78.4828
rhand 19.7837 4.46322
rfingers 7.12502
rthumb 44.3335 -19.2941
lclavicle -1.80894e-014 -1.55052e-014
lhumerus -62.2513 7.57765 59.5347
lradius 31.8999
lwrist 30.347
lhand 41.2121 22.459
lfingers 7.12502
lthumb 63.3921 32.1045
rfemur -25.7034 8.18703 37.7275
rtibia 26.1582
rfoot -30.2497 -13.3525
rtoes -29.0439
lfemur -74.0734 0.797321 -7.07367
ltibia 41.2861
lfoot -44.4029 4.64919
ltoes 51.9637
790
root -0.789244 16.3548 5.52894 -156.745 -9.35097 187.639
lowerback 3.31108 2.76983 7.03307
upperback -5.87626 4.00242 2.25017
thorax -7.7257 1.45193 -1.91473
lowerneck -12.3727 1.59305 -1.6837
upperneck 40.1421 -2.92928 2.1207
head 16.5933 -2.64672 0.305134
rclavicle -3.03147e-014 1.59028e-015
rhumerus -235.202 -169.969 113.858
rradius 36.1117
rwrist -77.3035
rhand 20.3585 4.52705
rfingers 7.12502
rthumb 44.8689 -19.024
lclavicle -3.03147e-014 1.59028e-015
lhumerus -62.6211 8.87612 57.4608
lradius 29.5947
lwrist 26.0713
lhand 41.1012 21.9679
lfingers 7.12502
lthumb 63.3015 31.741
rfemur -24.37 7.50617 38.5187
rtibia 25.5744
rfoot -30.6354 -12.4186
rtoes -30.1357
lfemur -74.4804 1.39805 -7.44933
ltibia 41.197
lfoot -42.5256 7.36332
ltoes 53.749
791
root -0.811354 16.345 5.42259 -156.727 -8.70779 187.607
lowerback 2.98466 2.78607 6.943
upperback -5.90115 3.97761 2.26002
thorax -7.5689 1.44651 -1.83609
lowerneck -12.3494 1.74932 -1.54832
upperneck 40.3255 -2.76002 1.97655
head 16.6774 -2.60176 0.237126
rclavicle 2.19657e-014 -3.4191e-014
rhumerus -236.224 -169.478 115.815
rradius 35.142
rwrist -76.3649
rhand 20.7303 4.3664
rfingers 7.12502
rthumb 45.2148 -19.0481
lclavicle 2.19657e-014 -3.4191e-014
lhumerus -63.4396 9.61505 55.8542
lradius 27.7036
lwrist 22.2613
lhand 40.3552 21.3351
lfingers 7.12502
lthumb 62.689 31.9438
rfemur -23.6388 6.96964 38.4261
rtibia 25.1617
rfoot -30.8157 -11.5851
rtoes -30.6519
lfemur -75.1935 1.79273 -8.65552
ltibia 40.9705
lfoot -41.9455 8.02787
ltoes 53.8569
